<?xml version="1.0" standalone="no"?><!DOCTYPE svg PUBLIC "-//W3C//DTD SVG 1.1//EN" "http://www.w3.org/Graphics/SVG/1.1/DTD/svg11.dtd"><svg t="1771775302270" class="icon" viewBox="0 0 1024 1024" version="1.1" xmlns="http://www.w3.org/2000/svg" p-id="31790" xmlns:xlink="http://www.w3.org/1999/xlink" width="200" height="200"><path d="M512 512m-512 0a512 512 0 1 0 1024 0 512 512 0 1 0-1024 0Z" fill="#E9FFFF" p-id="31791"></path><path d="M316.104348 175.738435h391.791304a47.181913 47.181913 0 0 1 47.181913 47.181913v6.054956a48.64 48.64 0 0 1-48.64 48.64h-388.897391a48.64 48.64 0 0 1-48.64-48.64v-6.054956A47.181913 47.181913 0 0 1 316.104348 175.738435zM807.268174 760.208696l-46.937044-412.939131a49.285565 49.285565 0 0 0-48.751304-43.998608H312.420174a49.285565 49.285565 0 0 0-48.751304 43.998608l-46.937044 412.939131c-3.33913 29.484522 19.433739 55.340522 48.762435 55.340521h493.011478c29.328696 0.033391 52.112696-25.822609 48.762435-55.340521zM441.956174 424.347826c26.312348 0 47.62713 20.658087 47.62713 46.146783s-21.314783 46.146783-47.62713 46.146782-47.616-20.658087-47.616-46.146782 21.314783-46.146783 47.616-46.146783zM361.182609 609.869913c-18.598957 0-33.680696-14.614261-33.680696-32.634435s15.081739-32.623304 33.680696-32.623304 33.669565 14.60313 33.669565 32.623304-15.070609 32.634435-33.669565 32.634435z m147.333565 53.837913c-58.991304 0-106.852174-7.713391-106.852174-53.426087s47.86087-89.922783 106.852174-89.922782 106.852174 44.210087 106.852174 89.922782-47.805217 53.426087-106.852174 53.426087z m66.56-147.066435c-26.301217 0-47.62713-20.658087-47.627131-46.146782s21.325913-46.146783 47.627131-46.146783 47.62713 20.658087 47.62713 46.146783-21.325913 46.146783-47.62713 46.146782z m87.752348 93.228522c-18.610087 0-33.680696-14.614261-33.680696-32.634435s15.070609-32.623304 33.680696-32.623304 33.669565 14.60313 33.669565 32.623304-15.081739 32.634435-33.669565 32.634435z" fill="#52B5FF" p-id="31792"></path></svg>