<?xml version="1.0" standalone="no"?><!DOCTYPE svg PUBLIC "-//W3C//DTD SVG 1.1//EN" "http://www.w3.org/Graphics/SVG/1.1/DTD/svg11.dtd"><svg t="1771734071780" class="icon" viewBox="0 0 1304 1024" version="1.1" xmlns="http://www.w3.org/2000/svg" p-id="9556" xmlns:xlink="http://www.w3.org/1999/xlink" width="254.6875" height="200"><path d="M1053.32146393 986.19488863a140.89399541 165.74755953 45 1 0-199.25419985-199.25419985 140.89399541 165.74755953 45 1 0 199.25419985 199.25419985Z" fill="#f06868" p-id="9557"></path><path d="M521.72472649 32.33813256a135.92328297 165.74755953 57.07 1 0-278.23556961 180.20538724 135.92328297 165.74755953 57.07 1 0 278.23556961-180.20538724Z" fill="#70a1d7" p-id="9558"></path><path d="M665.6782158 948.57969978a144.83628477 185.03049631 45 1 0-204.82943894-204.82943896 144.83628477 185.03049631 45 1 0 204.82943894 204.82943896Z" fill="#f47c7c" p-id="9559"></path><path d="M463.82100241 417.76650489a144.83628477 185.03049631 51.71 1 0-290.45514997 229.30535388 144.83628477 185.03049631 51.71 1 0 290.45514997-229.30535388Z" fill="#a1de93" p-id="9560"></path><path d="M641.48980881 109.19436624c118.35263144-103.68732877 285.12500258-56.05539341 403.53823475 79.20475622s143.86541062 306.75935411 25.63397931 410.68908455-300.21450845 62.78204064-428.86921167-57.02500067c-102.65712076-154.28868389-118.7162339-329.12091129-0.30300239-432.8688401z" fill="#80d6ff" p-id="9561"></path></svg>