<?xml version="1.0" standalone="no"?><!DOCTYPE svg PUBLIC "-//W3C//DTD SVG 1.1//EN" "http://www.w3.org/Graphics/SVG/1.1/DTD/svg11.dtd"><svg t="1771775028387" class="icon" viewBox="0 0 1024 1024" version="1.1" xmlns="http://www.w3.org/2000/svg" p-id="19976" xmlns:xlink="http://www.w3.org/1999/xlink" width="200" height="200"><path d="M509.9008 513.1264m-450.816 0a450.816 450.816 0 1 0 901.632 0 450.816 450.816 0 1 0-901.632 0Z" fill="#8486F8" p-id="19977"></path><path d="M714.7008 254.6688H304.9472c-36.5568 0-66.1504 29.5936-66.1504 66.1504v283.9552c0 36.5568 29.5936 66.1504 66.1504 66.1504h409.8048c36.5568 0 66.1504-29.5936 66.1504-66.1504V320.8192c-0.0512-36.5056-29.6448-66.1504-66.2016-66.1504zM487.8336 435.8144H449.024v103.8848c0 16.2816-13.2096 29.4912-29.4912 29.4912-16.2816 0-29.4912-13.2096-29.4912-29.4912V435.8144H351.232c-16.2816 0-29.4912-13.2096-29.4912-29.4912 0-16.2816 13.2096-29.4912 29.4912-29.4912h136.6016c16.2816 0 29.4912 13.2096 29.4912 29.4912 0 16.3328-13.1584 29.4912-29.4912 29.4912z m207.8208-18.2272l-54.8352 133.376a29.4912 29.4912 0 0 1-27.2896 18.2784h-0.256a29.5168 29.5168 0 0 1-27.2384-18.688l-52.4288-133.376c-5.9392-15.1552 1.4848-32.256 16.64-38.2464 15.1552-5.9392 32.256 1.4848 38.2464 16.64l25.6 65.1264 26.9824-65.5872c6.1952-15.0528 23.3984-22.2208 38.5024-16.0768a29.58336 29.58336 0 0 1 16.0768 38.5536zM713.1136 761.2928H306.5344c-16.2816 0-29.4912-11.8784-29.4912-26.4704s13.2096-26.4704 29.4912-26.4704h406.5792c16.2816 0 29.4912 11.8784 29.4912 26.4704s-13.2096 26.4704-29.4912 26.4704z" fill="#FFFFFF" p-id="19978"></path></svg>